<svg xmlns="http://www.w3.org/2000/svg" width="186" height="56" viewBox="0 0 186 56"><g transform="translate(-95 -37)"><g transform="translate(165.07 52.296)"><path d="M384.262,101.553a10.117,10.117,0,0,1,6.143,2.082l1.145.937,2.187-2.566-1.18-.972a13.346,13.346,0,0,0-8.3-2.847,13.53,13.53,0,0,0-9.267,3.679,12.753,12.753,0,0,0-3.854,8.99,12.469,12.469,0,0,0,3.854,8.955,13.308,13.308,0,0,0,9.267,3.749,13.87,13.87,0,0,0,8.19-2.777l1.18-.972-2.187-2.639-1.145.937a9.625,9.625,0,0,1-6.038,2.05,9.863,9.863,0,0,1-6.873-2.707,9.21,9.21,0,0,1-2.847-6.6,9.013,9.013,0,0,1,2.847-6.561A9.833,9.833,0,0,1,384.262,101.553Z" transform="translate(-371.14 -97.839)" fill="#010001"/><path d="M379.64,123.2h3.542l3.644-8.158H394.6l3.644,8.158h3.539L390.712,98.067Zm8.608-11.384,2.464-5.694c.765,1.7,1.8,4.269,2.464,5.694Z" transform="translate(-354.822 -98.067)" fill="#010001"/><path d="M402.653,108.267H391.721V98.341h-3.367v24.33h3.367V111.6h10.933v11.072h3.4V98.341h-3.4Z" transform="translate(-338.093 -97.542)" fill="#010001"/><path d="M395.546,123.2h3.542l3.644-8.158h7.776l3.644,8.158h3.539L406.618,98.067Zm8.608-11.384,2.464-5.694c.765,1.7,1.8,4.269,2.464,5.694Z" transform="translate(-324.286 -98.067)" fill="#010001"/><path d="M420.12,98.867v16.415c-3.988-4.339-15.86-17.215-15.86-17.215V123.2h3.366V106.952c3.991,4.339,15.86,17.148,15.86,17.148V98.867Z" transform="translate(-307.557 -98.067)" fill="#010001"/></g><g transform="translate(95 37)"><path d="M392.65,88.505a18.245,18.245,0,0,0,2.441.21,15.766,15.766,0,0,0,6.33-1.183,15.559,15.559,0,0,0,4.427-2.8,19.1,19.1,0,0,1-1.586-1.854,13.2,13.2,0,0,1-3.775,2.394,13.444,13.444,0,0,1-5.6.993,15.88,15.88,0,0,1-2.532-.295,20.122,20.122,0,0,1-5.384-1.921c.517-.625,1.063-1.232,1.65-1.819s1.185-1.127,1.813-1.647a21.01,21.01,0,0,1,1.615,4.076,15.119,15.119,0,0,0,2.6.368,23.113,23.113,0,0,0-2.237-5.918c-.38-.71-.794-1.413-1.25-2.108-.675.45-1.332.937-1.971,1.448a27.481,27.481,0,0,0-4.362,4.356c-.514.639-1,1.3-1.448,1.971q1.047.683,2.108,1.256A22.519,22.519,0,0,0,392.65,88.505Z" transform="translate(-378.674 -72.296)" fill="#e1251b"/><path d="M407.067,97.071a21.153,21.153,0,0,1-1.591-4.032,15.12,15.12,0,0,0-2.6-.368,23.219,23.219,0,0,0,2.2,5.857q.565,1.064,1.244,2.111c.68-.444,1.34-.923,1.986-1.431a26.254,26.254,0,0,0,2.312-2.053,28.823,28.823,0,0,0,2.047-2.28c.517-.639,1.007-1.291,1.463-1.965q-1.047-.683-2.114-1.253a22.457,22.457,0,0,0-7.142-2.461,18.242,18.242,0,0,0-2.441-.21,15.766,15.766,0,0,0-6.33,1.183,15.528,15.528,0,0,0-4.418,2.788,18.773,18.773,0,0,1,1.582,1.86,13.162,13.162,0,0,1,3.769-2.391,13.362,13.362,0,0,1,5.6-.993,15.884,15.884,0,0,1,2.531.295,20.193,20.193,0,0,1,5.355,1.907q-.771.928-1.635,1.793A23.228,23.228,0,0,1,407.067,97.071Z" transform="translate(-362.734 -49.335)" fill="#e1251b"/><path d="M393.41,85.113A17.856,17.856,0,0,0,395,86.988a15.738,15.738,0,0,0,5.305,3.641,15.505,15.505,0,0,0,5.1,1.147,18.592,18.592,0,0,1,.2-2.429,13.189,13.189,0,0,1-4.356-.975,13.4,13.4,0,0,1-4.663-3.258,15.83,15.83,0,0,1-1.58-2,20.1,20.1,0,0,1-2.45-5.162,25.171,25.171,0,0,1,4.9,0,20.739,20.739,0,0,1-1.74,4.018,15.218,15.218,0,0,0,1.582,2.1,23.227,23.227,0,0,0,2.607-5.767q.346-1.156.6-2.374c-.8-.161-1.606-.28-2.417-.371a28.071,28.071,0,0,0-6.164,0q-1.209.136-2.415.377c.169.812.374,1.6.607,2.371A22.424,22.424,0,0,0,393.41,85.113Z" transform="translate(-366.934 -75.391)" fill="#e1251b"/><path d="M396.766,95.66a15.432,15.432,0,0,1,1.58,2,20.014,20.014,0,0,1,2.42,5.075,25.336,25.336,0,0,1-4.844.02,20.839,20.839,0,0,1,1.717-3.95,14.817,14.817,0,0,0-1.583-2.1,23.213,23.213,0,0,0-2.59,5.711q-.35,1.161-.61,2.385c.8.155,1.609.272,2.42.359a27.963,27.963,0,0,0,6.132-.032q1.213-.14,2.418-.385c-.172-.812-.38-1.6-.616-2.371a22.384,22.384,0,0,0-3.282-6.71,17.557,17.557,0,0,0-1.585-1.874,15.739,15.739,0,0,0-5.305-3.641A15.505,15.505,0,0,0,387.943,89a18.607,18.607,0,0,1-.2,2.429,13.172,13.172,0,0,1,4.356.975A13.4,13.4,0,0,1,396.766,95.66Z" transform="translate(-370.29 -49.311)" fill="#e1251b"/><path d="M400.164,88.62a15.776,15.776,0,0,0-3.644,5.305,15.5,15.5,0,0,0-1.144,5.1,19.081,19.081,0,0,1,2.426.2,13.186,13.186,0,0,1,.975-4.356,13.464,13.464,0,0,1,3.258-4.66,15.93,15.93,0,0,1,2-1.583,20.141,20.141,0,0,1,5.18-2.456q.118,1.235.12,2.494c0,.812-.041,1.618-.117,2.418a20.928,20.928,0,0,1-4.044-1.749,15.245,15.245,0,0,0-2.1,1.583,23.232,23.232,0,0,0,5.787,2.613q1.156.346,2.38.6c.158-.8.277-1.606.368-2.421a29.248,29.248,0,0,0,.169-3.048,28.444,28.444,0,0,0-.178-3.124c-.091-.812-.207-1.62-.368-2.415q-1.218.254-2.374.6a22.349,22.349,0,0,0-6.823,3.317A17.532,17.532,0,0,0,400.164,88.62Z" transform="translate(-355.646 -60.584)" fill="#e1251b"/><path d="M382.311,97.469c.815-.169,1.606-.374,2.38-.607a22.425,22.425,0,0,0,6.8-3.311,18.192,18.192,0,0,0,1.874-1.583,15.812,15.812,0,0,0,3.641-5.305,15.585,15.585,0,0,0,1.148-5.1,19.088,19.088,0,0,1-2.429-.2,13.243,13.243,0,0,1-.975,4.356,13.409,13.409,0,0,1-3.258,4.663,16.113,16.113,0,0,1-2,1.583,20.1,20.1,0,0,1-5.156,2.447,25.833,25.833,0,0,1,0-4.894,20.8,20.8,0,0,1,4.015,1.74,15.249,15.249,0,0,0,2.1-1.583,23.16,23.16,0,0,0-5.764-2.607c-.771-.231-1.565-.435-2.38-.6-.158.8-.283,1.609-.371,2.418a28.275,28.275,0,0,0,0,6.167C382.027,95.863,382.15,96.669,382.311,97.469Z" transform="translate(-381.768 -63.933)" fill="#e1251b"/><path d="M391.115,85.3a19.193,19.193,0,0,1-1.863,1.58,13.232,13.232,0,0,1,2.4,3.778,13.454,13.454,0,0,1,.993,5.6,15.852,15.852,0,0,1-.3,2.531,19.989,19.989,0,0,1-1.909,5.364c-.637-.523-1.253-1.074-1.842-1.664-.572-.575-1.11-1.171-1.618-1.784a20.812,20.812,0,0,1,4.058-1.606,14.87,14.87,0,0,0,.368-2.6,23.333,23.333,0,0,0-5.91,2.231c-.71.383-1.413.8-2.111,1.253.453.672.934,1.328,1.451,1.971a27.845,27.845,0,0,0,2.032,2.266,28.355,28.355,0,0,0,2.327,2.085q.964.766,1.977,1.439c.456-.695.87-1.4,1.25-2.105a22.468,22.468,0,0,0,2.461-7.139,17.782,17.782,0,0,0,.207-2.441A15.486,15.486,0,0,0,391.115,85.3Z" transform="translate(-378.668 -56.403)" fill="#e1251b"/><path d="M399.341,99.458a18.793,18.793,0,0,1,1.86-1.58,13.137,13.137,0,0,1-2.4-3.781,13.385,13.385,0,0,1-1-5.6,15.852,15.852,0,0,1,.3-2.531,20.149,20.149,0,0,1,1.912-5.372c.634.523,1.247,1.072,1.834,1.661s1.118,1.174,1.632,1.793a20.972,20.972,0,0,1-4.067,1.609,14.853,14.853,0,0,0-.368,2.6,23.185,23.185,0,0,0,5.918-2.234c.709-.383,1.413-.8,2.108-1.25-.453-.677-.94-1.331-1.454-1.968a28.337,28.337,0,0,0-2.041-2.28,28.733,28.733,0,0,0-2.318-2.076c-.639-.514-1.3-.993-1.974-1.442-.453.692-.87,1.4-1.25,2.1a22.474,22.474,0,0,0-2.467,7.151,17.783,17.783,0,0,0-.207,2.441,15.78,15.78,0,0,0,1.18,6.333A15.587,15.587,0,0,0,399.341,99.458Z" transform="translate(-355.671 -72.288)" fill="#e1251b"/></g></g></svg>